<svg width="6.34in" height="2.38in" data-name="Layer 1" viewBox="0 0 456.6 171.36" xmlns="http://www.w3.org/2000/svg">
    <g fill="#ffffff" stroke-width="0">
        <path d="M88.16 8.71H69.87V0h46.71v8.71H98.29v47.03H88.16V8.71ZM123.96 0h17.98c6.04 0 8.79.47 11.23 1.57 5.57 2.51 9.11 7.85 9.11 15.23 0 6.67-3.53 12.88-9.42 15.23v.16s.78.79 1.88 2.75l11.46 20.8h-11.31l-11.07-20.8h-9.73v20.8h-10.13V0Zm19.24 26.14c5.42 0 8.79-3.22 8.79-8.79s-2.28-8.64-10.21-8.64h-7.69v17.43h9.11ZM203.34 41.45h-19.55l-4.71 14.29h-10.44L188.27 0h10.6l19.63 55.74h-10.44l-4.71-14.29Zm-9.81-31.79s-1.26 5.49-2.35 8.63l-4.95 14.92h14.6l-4.95-14.92c-1.02-3.14-2.2-8.63-2.2-8.63h-.16ZM222.69 0h10.13v35.72c0 7.46 4.87 11.7 12.33 11.7s12.4-4.24 12.4-11.78V0h10.13v35.72c0 12.48-9.03 20.96-22.45 20.96S222.7 48.2 222.7 35.72V0ZM282.24 0h10.83l10.91 27.56c1.26 3.3 2.83 8.16 2.83 8.16h.16s1.49-4.87 2.75-8.16L320.63 0h10.83l4.47 55.74h-10.05l-2.36-31.17c-.23-3.69-.08-8.64-.08-8.64h-.16s-1.65 5.42-2.98 8.64l-9.03 21.59h-8.87l-8.95-21.59c-1.33-3.22-3.06-8.71-3.06-8.71h-.16s.16 5.02-.08 8.71l-2.35 31.17h-10.13L282.22 0ZM376.07 41.45h-19.55l-4.71 14.29h-10.44L361 0h10.6l19.63 55.74h-10.44l-4.71-14.29Zm-9.81-31.79s-1.26 5.49-2.36 8.63l-4.95 14.92h14.6l-4.95-14.92c-1.02-3.14-2.2-8.63-2.2-8.63h-.16ZM9.5 91.51v-.16S2.43 88.6 2.43 79.17c0-9.9 7.93-14.69 17.6-14.69 3.54 0 7.31.94 7.31.94l-2.44 8.01s-1.89-.47-3.69-.47c-4.71 0-8.56 2.59-8.56 7.46 0 3.22 1.81 7.39 8.49 7.39h8.88v-7.23H40v7.23h7.23v8.8H40v6.6c0 11.39-7.46 18.93-20.03 18.93S0 114.85 0 105.42c0-6.05 3.61-11.86 9.5-13.91Zm10.45 21.37c6.29 0 10.06-3.46 10.06-10.21v-6.05h-9.43c-6.21 0-10.21 2.75-10.21 8.17 0 4.48 3.85 8.09 9.58 8.09ZM62.53 64.78h17.98c6.04 0 8.79.47 11.23 1.57 5.57 2.51 9.11 7.85 9.11 15.23 0 6.67-3.53 12.88-9.42 15.23v.16s.78.79 1.88 2.75l11.46 20.8H93.46l-11.07-20.8h-9.73v20.8H62.53V64.78Zm19.23 26.14c5.42 0 8.79-3.22 8.79-8.79s-2.28-8.64-10.21-8.64h-7.69v17.43h9.11ZM112.23 64.78h33.36v8.71h-23.24v14.6h18.76v8.71h-18.76v14.99h24.49v8.71h-34.62V64.76zM181.87 63.84c13.58 0 20.57 7.61 20.57 7.61l-4.87 7.54s-6.36-5.89-15.23-5.89c-11.78 0-18.68 8.79-18.68 19.16s7.14 19.94 18.76 19.94c9.66 0 16.17-7.07 16.17-7.07l5.34 7.3s-7.69 9.03-21.9 9.03c-17.04 0-28.81-12.64-28.81-29.05s12.25-28.58 28.65-28.58zM267.62 64.78h10.91l12.25 36.35c1.1 3.22 2.04 8.16 2.12 8.16h.16c.08 0 1.02-4.95 2.12-8.16l12.32-36.35h10.83L298 120.52h-10.05l-20.33-55.74ZM325.33 64.78h33.36v8.71h-23.24v14.6h18.76v8.71h-18.76v14.99h24.49v8.71h-34.62V64.76zM368.83 64.78h17.98c6.04 0 8.79.47 11.23 1.57 5.57 2.51 9.11 7.85 9.11 15.23 0 6.67-3.53 12.88-9.42 15.23v.16s.78.79 1.88 2.75l11.46 20.8h-11.31l-11.07-20.8h-9.73v20.8h-10.13V64.78Zm19.24 26.14c5.42 0 8.79-3.22 8.79-8.79s-2.28-8.64-10.21-8.64h-7.69v17.43h9.11ZM427.95 97.2l-18.53-32.42h11.46l8.71 16.41c1.81 3.45 3.3 7.54 3.38 7.46h.16s1.57-4 3.38-7.46l8.64-16.41h11.46L438.08 97.2v23.32h-10.13V97.2z"/>
    </g>
    <g fill="#f2f4f8" stroke-width="0">
        <path d="M10.51 145.74h-3.2v8.76H2.57v-22.28h8.55c5.72 0 8.18 2.69 8.18 6.51 0 2.96-1.57 5.35-4.53 6.17l6.07 9.61h-5.21l-5.11-8.76Zm-3.21-3.37h3.78c2.83 0 3.54-1.46 3.54-3.34 0-2.04-.82-3.2-3.58-3.2H7.29v6.54ZM39.16 132.22v3.85H28.53v5.38h8.08v3.37h-8.08v5.89h11.01v3.78H23.8v-22.28h15.37zM58.1 136.31l-3.1 1.64c-.82-1.6-2.66-2.52-4.8-2.52-2.62 0-3.58 1.09-3.58 2.56 0 4.02 11.55 2.59 11.55 10.26 0 4.16-3.24 6.58-8.21 6.58-3.88 0-7.39-2.11-8.52-5.25l3.44-1.29c.85 1.94 3 3.03 5.01 3.03 2.62 0 3.88-.89 3.88-2.66 0-4.43-11.82-2.96-11.82-10.49 0-3.51 3-6.24 7.8-6.24 4.09 0 6.88 1.7 8.35 4.39ZM76.95 132.22v3.85H66.32v5.38h8.08v3.37h-8.08v5.89h11.01v3.78H61.59v-22.28h15.37zM83.52 154.5h-4.8l8.42-22.28h5.15l8.42 22.28h-4.8l-1.64-4.84h-9.13l-1.6 4.84zm2.73-8.18h6.85l-3.41-10.15h-.07l-3.37 10.15zM111.36 145.74h-3.2v8.76h-4.74v-22.28h8.55c5.72 0 8.18 2.69 8.18 6.51 0 2.96-1.57 5.35-4.53 6.17l6.06 9.61h-5.21l-5.11-8.76zm-3.21-3.37h3.78c2.83 0 3.54-1.46 3.54-3.34 0-2.04-.82-3.2-3.58-3.2h-3.75v6.54zM140.35 136.89l-3.34 1.33c-.58-1.6-1.94-2.62-4.12-2.62-2.9 0-4.36 1.74-4.36 4.67v6.47c0 2.69 1.5 4.57 4.36 4.57 2.18 0 3.44-.89 4.16-2.79l3.37 1.26c-1.02 3.27-3.71 5.04-7.94 5.04-5.21 0-8.69-3.2-8.69-8.04v-6.47c0-5.21 3.37-8.38 8.65-8.38 3.95 0 6.98 2.28 7.9 4.97ZM148.6 132.22v9.06h8.38v-9.06h4.7v22.28h-4.7v-9.27h-8.38v9.27h-4.74v-22.28h4.74zM332.85 132.22v14.11c0 5.15-3.37 8.48-9.27 8.48s-9.34-3.24-9.34-8.25v-14.34h4.74v14.34c0 3.07 1.98 4.33 4.6 4.33 2.93 0 4.57-1.4 4.57-4.33v-14.34h4.7zM341.06 132.22l9.98 14.07h.07v-14.07h4.16v22.28h-3.34l-10.19-14.41h-.07v14.41h-4.22v-22.28h3.61ZM365.46 132.22v22.28h-4.74v-22.28h4.74zM386.17 132.22v3.88h-6.27v18.4h-4.74v-18.4h-6.27v-3.88h17.28z"/>
    </g>
    <g fill="#f2f4f8" stroke-width="0">
        <path d="M237.94 63.84c16.65 0 29.25 12.67 29.25 28.85s-12.59 29.64-29.25 29.64-29.25-12.99-29.25-29.64 12.59-28.85 29.25-28.85zm0 49.08c10.36 0 18.65-8.61 18.65-20.24s-8.29-19.44-18.65-19.44-18.65 8.29-18.65 19.44 8.29 20.24 18.65 20.24zM283.06 171.36c-7.16-19.02-24.85-31.3-45.13-31.3s-37.97 12.28-45.13 31.3h-12.67c7.88-24.81 30.53-40.82 57.8-40.82s49.91 16.01 57.8 40.82h-12.67z"/>
    </g>
</svg>
